<svg xmlns="http://www.w3.org/2000/svg" width="1600" height="900" viewBox="0 0 1600 900">
<rect x="0" y="0" width="1600" height="900" rx="0" fill="#08111f"/>
<text x="80" y="70" font-family="Apple SD Gothic Neo, Pretendard, sans-serif" font-size="22" fill="#4fd1c5" font-weight="700" letter-spacing="1">CLOUDWATCH EC2 · NETWORK DIRECTION</text>
<text x="80" y="125" font-family="Apple SD Gothic Neo, Pretendard, sans-serif" font-size="42" fill="#e8eef7" font-weight="800">관리면 왕복과 게임→인프라 전송은 따로 봐야 합니다</text>
<line x1="80" y1="155" x2="1520" y2="155" stroke="#26364d" stroke-width="2"/>
<text x="80" y="858" font-family="Apple SD Gothic Neo, Pretendard, sans-serif" font-size="17" fill="#9fb0c6" >AWS CloudWatch (EC2) · NetworkIn/Out Sum · not Cross-AZ-only · 2026-07-31 KST</text>
<text x="1520" y="858" font-family="Apple SD Gothic Neo, Pretendard, sans-serif" font-size="17" fill="#9fb0c6" text-anchor="end" letter-spacing="1">KYRO · EVIDENCE</text>
<rect x="80" y="180" width="1440" height="95" rx="18" fill="#111d2e"/>
<text x="110" y="218" font-family="Apple SD Gothic Neo, Pretendard, sans-serif" font-size="19" fill="#9fb0c6" >해석</text>
<text x="110" y="255" font-family="Apple SD Gothic Neo, Pretendard, sans-serif" font-size="27" fill="#e8eef7" font-weight="700">32개 워커만의 비용이 아니라 management 내부 왕복 + game→infra 데이터면 전송이 함께 컸습니다.</text>
<rect x="1210" y="198" width="18" height="18" rx="4" fill="#f6ad55"/>
<text x="1238" y="214" font-family="Apple SD Gothic Neo, Pretendard, sans-serif" font-size="17" fill="#9fb0c6" >NetworkOut</text>
<rect x="1210" y="232" width="18" height="18" rx="4" fill="#4fd1c5"/>
<text x="1238" y="248" font-family="Apple SD Gothic Neo, Pretendard, sans-serif" font-size="17" fill="#9fb0c6" >NetworkIn</text>
<text x="80" y="322" font-family="Apple SD Gothic Neo, Pretendard, sans-serif" font-size="19" fill="#e8eef7" font-weight="700">management-server-nodes</text>
<rect x="375" y="300" width="810" height="21" rx="7" fill="#26364d"/>
<rect x="375" y="300" width="761.8934694156186" height="21" rx="7" fill="#f6ad55"/>
<text x="1205" y="317" font-family="Apple SD Gothic Neo, Pretendard, sans-serif" font-size="16" fill="#f6ad55" >out 5.05TiB</text>
<rect x="375" y="329" width="810" height="21" rx="7" fill="#26364d"/>
<rect x="375" y="329" width="785.591984346107" height="21" rx="7" fill="#4fd1c5"/>
<text x="1205" y="346" font-family="Apple SD Gothic Neo, Pretendard, sans-serif" font-size="16" fill="#4fd1c5" >in  5.21TiB</text>
<text x="80" y="388" font-family="Apple SD Gothic Neo, Pretendard, sans-serif" font-size="19" fill="#e8eef7" font-weight="700">battlegrounds-game</text>
<rect x="375" y="366" width="810" height="21" rx="7" fill="#26364d"/>
<rect x="375" y="366" width="720.9411236002522" height="21" rx="7" fill="#f6ad55"/>
<text x="1205" y="383" font-family="Apple SD Gothic Neo, Pretendard, sans-serif" font-size="16" fill="#f6ad55" >out 4.78TiB</text>
<rect x="375" y="395" width="810" height="21" rx="7" fill="#26364d"/>
<rect x="375" y="395" width="24.16440026601" height="21" rx="7" fill="#4fd1c5"/>
<text x="1205" y="412" font-family="Apple SD Gothic Neo, Pretendard, sans-serif" font-size="16" fill="#4fd1c5" >in  0.16TiB</text>
<text x="80" y="454" font-family="Apple SD Gothic Neo, Pretendard, sans-serif" font-size="19" fill="#e8eef7" font-weight="700">cluster-2-spot</text>
<rect x="375" y="432" width="810" height="21" rx="7" fill="#26364d"/>
<rect x="375" y="432" width="202.70147855206253" height="21" rx="7" fill="#f6ad55"/>
<text x="1205" y="449" font-family="Apple SD Gothic Neo, Pretendard, sans-serif" font-size="16" fill="#f6ad55" >out 1.34TiB</text>
<rect x="375" y="461" width="810" height="21" rx="7" fill="#26364d"/>
<rect x="375" y="461" width="210.39684102993436" height="21" rx="7" fill="#4fd1c5"/>
<text x="1205" y="478" font-family="Apple SD Gothic Neo, Pretendard, sans-serif" font-size="16" fill="#4fd1c5" >in  1.40TiB</text>
<text x="80" y="520" font-family="Apple SD Gothic Neo, Pretendard, sans-serif" font-size="19" fill="#e8eef7" font-weight="700">kubernetes-ops-r6i</text>
<rect x="375" y="498" width="810" height="21" rx="7" fill="#26364d"/>
<rect x="375" y="498" width="176.6998262028044" height="21" rx="7" fill="#f6ad55"/>
<text x="1205" y="515" font-family="Apple SD Gothic Neo, Pretendard, sans-serif" font-size="16" fill="#f6ad55" >out 1.17TiB</text>
<rect x="375" y="527" width="810" height="21" rx="7" fill="#26364d"/>
<rect x="375" y="527" width="185.28708850486038" height="21" rx="7" fill="#4fd1c5"/>
<text x="1205" y="544" font-family="Apple SD Gothic Neo, Pretendard, sans-serif" font-size="16" fill="#4fd1c5" >in  1.23TiB</text>
<text x="80" y="586" font-family="Apple SD Gothic Neo, Pretendard, sans-serif" font-size="19" fill="#e8eef7" font-weight="700">game-server-spot-xl-v2</text>
<rect x="375" y="564" width="810" height="21" rx="7" fill="#26364d"/>
<rect x="375" y="564" width="139.71398848897582" height="21" rx="7" fill="#f6ad55"/>
<text x="1205" y="581" font-family="Apple SD Gothic Neo, Pretendard, sans-serif" font-size="16" fill="#f6ad55" >out 0.93TiB</text>
<rect x="375" y="593" width="810" height="21" rx="7" fill="#26364d"/>
<rect x="375" y="593" width="57.07549426686055" height="21" rx="7" fill="#4fd1c5"/>
<text x="1205" y="610" font-family="Apple SD Gothic Neo, Pretendard, sans-serif" font-size="16" fill="#4fd1c5" >in  0.38TiB</text>
<text x="80" y="652" font-family="Apple SD Gothic Neo, Pretendard, sans-serif" font-size="19" fill="#e8eef7" font-weight="700">demo-server-private</text>
<rect x="375" y="630" width="810" height="21" rx="7" fill="#26364d"/>
<rect x="375" y="630" width="133.137852872274" height="21" rx="7" fill="#f6ad55"/>
<text x="1205" y="647" font-family="Apple SD Gothic Neo, Pretendard, sans-serif" font-size="16" fill="#f6ad55" >out 0.88TiB</text>
<rect x="375" y="659" width="810" height="21" rx="7" fill="#26364d"/>
<rect x="375" y="659" width="138.15781745931164" height="21" rx="7" fill="#4fd1c5"/>
<text x="1205" y="676" font-family="Apple SD Gothic Neo, Pretendard, sans-serif" font-size="16" fill="#4fd1c5" >in  0.92TiB</text>
<text x="80" y="718" font-family="Apple SD Gothic Neo, Pretendard, sans-serif" font-size="19" fill="#e8eef7" font-weight="700">battlegrounds-infra</text>
<rect x="375" y="696" width="810" height="21" rx="7" fill="#26364d"/>
<rect x="375" y="696" width="48.878432677377816" height="21" rx="7" fill="#f6ad55"/>
<text x="1205" y="713" font-family="Apple SD Gothic Neo, Pretendard, sans-serif" font-size="16" fill="#f6ad55" >out 0.32TiB</text>
<rect x="375" y="725" width="810" height="21" rx="7" fill="#26364d"/>
<rect x="375" y="725" width="769.877102827157" height="21" rx="7" fill="#4fd1c5"/>
<text x="1205" y="742" font-family="Apple SD Gothic Neo, Pretendard, sans-serif" font-size="16" fill="#4fd1c5" >in  5.11TiB</text>
<rect x="80" y="775" width="1440" height="50" rx="12" fill="#17263a"/>
<text x="100" y="808" font-family="Apple SD Gothic Neo, Pretendard, sans-serif" font-size="18" fill="#9fb0c6" >주의: NetworkIn/Out에는 same-AZ·Cross-AZ·인터넷·제어면 트래픽이 함께 포함됩니다.</text>
</svg>